<mxfile host="Electron" agent="Mozilla/5.0 (Windows NT 10.0; Win64; x64) AppleWebKit/537.36 (KHTML, like Gecko) draw.io/24.7.17 Chrome/128.0.6613.36 Electron/32.0.1 Safari/537.36" version="24.7.17">
  <diagram name="Page-1" id="ZtzYBoGJK9nUOE8xzGS0">
    <mxGraphModel dx="1050" dy="621" grid="1" gridSize="10" guides="1" tooltips="1" connect="1" arrows="1" fold="1" page="1" pageScale="1" pageWidth="850" pageHeight="1100" math="0" shadow="0">
      <root>
        <mxCell id="0" />
        <mxCell id="1" parent="0" />
        <mxCell id="APexV_3YmSOFn4lQZc1M-1" value="Not Leap&lt;div&gt;year%4&lt;/div&gt;" style="whiteSpace=wrap;html=1;aspect=fixed;" parent="1" vertex="1">
          <mxGeometry x="380" y="280" width="80" height="80" as="geometry" />
        </mxCell>
        <mxCell id="APexV_3YmSOFn4lQZc1M-2" value="Not&lt;div&gt;year%4&lt;/div&gt;" style="whiteSpace=wrap;html=1;aspect=fixed;" parent="1" vertex="1">
          <mxGeometry x="380" y="280" width="80" height="80" as="geometry" />
        </mxCell>
        <mxCell id="APexV_3YmSOFn4lQZc1M-3" value="Not&lt;div&gt;year%400&lt;/div&gt;" style="whiteSpace=wrap;html=1;aspect=fixed;" parent="1" vertex="1">
          <mxGeometry x="380" y="480" width="80" height="80" as="geometry" />
        </mxCell>
        <mxCell id="APexV_3YmSOFn4lQZc1M-4" value="Not&lt;div&gt;year%100&lt;/div&gt;" style="whiteSpace=wrap;html=1;aspect=fixed;" parent="1" vertex="1">
          <mxGeometry x="380" y="380" width="80" height="80" as="geometry" />
        </mxCell>
        <mxCell id="APexV_3YmSOFn4lQZc1M-5" value="&lt;div&gt;year%4&lt;/div&gt;" style="whiteSpace=wrap;html=1;aspect=fixed;" parent="1" vertex="1">
          <mxGeometry x="480" y="280" width="80" height="80" as="geometry" />
        </mxCell>
        <mxCell id="APexV_3YmSOFn4lQZc1M-6" value="&lt;div&gt;year%100&lt;/div&gt;" style="whiteSpace=wrap;html=1;aspect=fixed;" parent="1" vertex="1">
          <mxGeometry x="480" y="380" width="80" height="80" as="geometry" />
        </mxCell>
        <mxCell id="APexV_3YmSOFn4lQZc1M-7" value="&lt;div&gt;year%400&lt;/div&gt;" style="whiteSpace=wrap;html=1;aspect=fixed;" parent="1" vertex="1">
          <mxGeometry x="480" y="480" width="80" height="80" as="geometry" />
        </mxCell>
        <mxCell id="APexV_3YmSOFn4lQZc1M-8" value="not leap" style="ellipse;whiteSpace=wrap;html=1;aspect=fixed;" parent="1" vertex="1">
          <mxGeometry x="630" y="380" width="80" height="80" as="geometry" />
        </mxCell>
        <mxCell id="APexV_3YmSOFn4lQZc1M-9" value="leap" style="ellipse;whiteSpace=wrap;html=1;aspect=fixed;" parent="1" vertex="1">
          <mxGeometry x="630" y="280" width="80" height="80" as="geometry" />
        </mxCell>
        <mxCell id="APexV_3YmSOFn4lQZc1M-23" value="false" style="edgeStyle=orthogonalEdgeStyle;rounded=0;orthogonalLoop=1;jettySize=auto;html=1;" parent="1" source="APexV_3YmSOFn4lQZc1M-17" target="APexV_3YmSOFn4lQZc1M-30" edge="1">
          <mxGeometry relative="1" as="geometry">
            <mxPoint x="410" y="640" as="targetPoint" />
          </mxGeometry>
        </mxCell>
        <mxCell id="APexV_3YmSOFn4lQZc1M-29" value="true" style="edgeStyle=orthogonalEdgeStyle;rounded=0;orthogonalLoop=1;jettySize=auto;html=1;" parent="1" source="APexV_3YmSOFn4lQZc1M-17" target="APexV_3YmSOFn4lQZc1M-28" edge="1">
          <mxGeometry relative="1" as="geometry" />
        </mxCell>
        <mxCell id="APexV_3YmSOFn4lQZc1M-17" value="&lt;div&gt;year%4&lt;/div&gt;" style="whiteSpace=wrap;html=1;aspect=fixed;" parent="1" vertex="1">
          <mxGeometry x="480" y="600" width="80" height="80" as="geometry" />
        </mxCell>
        <mxCell id="APexV_3YmSOFn4lQZc1M-31" value="true" style="edgeStyle=orthogonalEdgeStyle;rounded=0;orthogonalLoop=1;jettySize=auto;html=1;" parent="1" source="APexV_3YmSOFn4lQZc1M-28" target="APexV_3YmSOFn4lQZc1M-33" edge="1">
          <mxGeometry relative="1" as="geometry" />
        </mxCell>
        <mxCell id="APexV_3YmSOFn4lQZc1M-45" value="false" style="edgeStyle=orthogonalEdgeStyle;rounded=0;orthogonalLoop=1;jettySize=auto;html=1;" parent="1" source="APexV_3YmSOFn4lQZc1M-33" target="APexV_3YmSOFn4lQZc1M-30" edge="1">
          <mxGeometry relative="1" as="geometry">
            <mxPoint x="350" y="910" as="targetPoint" />
          </mxGeometry>
        </mxCell>
        <mxCell id="APexV_3YmSOFn4lQZc1M-49" value="false" style="edgeStyle=orthogonalEdgeStyle;rounded=0;orthogonalLoop=1;jettySize=auto;html=1;" parent="1" source="APexV_3YmSOFn4lQZc1M-28" target="APexV_3YmSOFn4lQZc1M-35" edge="1">
          <mxGeometry relative="1" as="geometry">
            <mxPoint x="620" y="780" as="targetPoint" />
          </mxGeometry>
        </mxCell>
        <mxCell id="APexV_3YmSOFn4lQZc1M-28" value="&lt;div&gt;year%100&lt;/div&gt;" style="whiteSpace=wrap;html=1;aspect=fixed;" parent="1" vertex="1">
          <mxGeometry x="480" y="740" width="80" height="80" as="geometry" />
        </mxCell>
        <mxCell id="APexV_3YmSOFn4lQZc1M-30" value="not leap" style="ellipse;whiteSpace=wrap;html=1;" parent="1" vertex="1">
          <mxGeometry x="345" y="740" width="80" height="80" as="geometry" />
        </mxCell>
        <mxCell id="APexV_3YmSOFn4lQZc1M-36" value="true" style="edgeStyle=orthogonalEdgeStyle;rounded=0;orthogonalLoop=1;jettySize=auto;html=1;" parent="1" source="APexV_3YmSOFn4lQZc1M-33" target="APexV_3YmSOFn4lQZc1M-35" edge="1">
          <mxGeometry relative="1" as="geometry" />
        </mxCell>
        <mxCell id="APexV_3YmSOFn4lQZc1M-33" value="&lt;div&gt;year%400&lt;/div&gt;" style="whiteSpace=wrap;html=1;aspect=fixed;" parent="1" vertex="1">
          <mxGeometry x="480" y="890" width="80" height="80" as="geometry" />
        </mxCell>
        <mxCell id="APexV_3YmSOFn4lQZc1M-35" value="leap" style="ellipse;whiteSpace=wrap;html=1;" parent="1" vertex="1">
          <mxGeometry x="630" y="740" width="80" height="80" as="geometry" />
        </mxCell>
      </root>
    </mxGraphModel>
  </diagram>
</mxfile>
